<mxfile host="app.diagrams.net" modified="2020-11-17T10:38:20.820Z" agent="5.0 (Windows NT 10.0; Win64; x64) AppleWebKit/537.36 (KHTML, like Gecko) Chrome/86.0.4240.111 Safari/537.36" etag="6tXndMAwWpX_J5_2_Hc3" version="13.9.9" type="github">
  <diagram id="JdBTyBQBV1D67s1ZjF_w" name="Page-1">
    <mxGraphModel dx="1422" dy="762" grid="1" gridSize="10" guides="1" tooltips="1" connect="1" arrows="1" fold="1" page="1" pageScale="1" pageWidth="827" pageHeight="1169" math="0" shadow="0">
      <root>
        <mxCell id="0" />
        <mxCell id="1" parent="0" />
        <mxCell id="adHpxPq9jT1f6eE09i13-2" value="spark strunct string" style="rounded=1;whiteSpace=wrap;html=1;" vertex="1" parent="1">
          <mxGeometry x="260" y="80" width="120" height="60" as="geometry" />
        </mxCell>
        <mxCell id="adHpxPq9jT1f6eE09i13-3" value="mysql" style="shape=cylinder3;whiteSpace=wrap;html=1;boundedLbl=1;backgroundOutline=1;size=15;" vertex="1" parent="1">
          <mxGeometry x="100" y="70" width="60" height="80" as="geometry" />
        </mxCell>
        <mxCell id="adHpxPq9jT1f6eE09i13-4" value="&lt;br&gt;delta lake&lt;br&gt;s3" style="shape=cylinder3;whiteSpace=wrap;html=1;boundedLbl=1;backgroundOutline=1;size=15;" vertex="1" parent="1">
          <mxGeometry x="290" y="200" width="60" height="80" as="geometry" />
        </mxCell>
        <mxCell id="adHpxPq9jT1f6eE09i13-5" value="redshift" style="shape=cylinder3;whiteSpace=wrap;html=1;boundedLbl=1;backgroundOutline=1;size=15;" vertex="1" parent="1">
          <mxGeometry x="520" y="200" width="60" height="80" as="geometry" />
        </mxCell>
        <mxCell id="adHpxPq9jT1f6eE09i13-6" value="" style="shape=flexArrow;endArrow=classic;html=1;entryX=1;entryY=0.5;entryDx=0;entryDy=0;entryPerimeter=0;" edge="1" parent="1" target="adHpxPq9jT1f6eE09i13-4">
          <mxGeometry width="50" height="50" relative="1" as="geometry">
            <mxPoint x="520" y="239.5" as="sourcePoint" />
            <mxPoint x="370" y="239.5" as="targetPoint" />
          </mxGeometry>
        </mxCell>
        <mxCell id="adHpxPq9jT1f6eE09i13-7" value="外表，映射" style="edgeLabel;html=1;align=center;verticalAlign=middle;resizable=0;points=[];" vertex="1" connectable="0" parent="adHpxPq9jT1f6eE09i13-6">
          <mxGeometry x="-0.2118" y="-1" relative="1" as="geometry">
            <mxPoint as="offset" />
          </mxGeometry>
        </mxCell>
        <mxCell id="adHpxPq9jT1f6eE09i13-17" value="" style="shape=flexArrow;endArrow=classic;html=1;exitX=0.5;exitY=1;exitDx=0;exitDy=0;" edge="1" parent="1" source="adHpxPq9jT1f6eE09i13-2">
          <mxGeometry width="50" height="50" relative="1" as="geometry">
            <mxPoint x="290" y="200" as="sourcePoint" />
            <mxPoint x="320" y="199" as="targetPoint" />
          </mxGeometry>
        </mxCell>
        <mxCell id="adHpxPq9jT1f6eE09i13-19" value="binlog" style="shape=flexArrow;endArrow=classic;html=1;entryX=0;entryY=0.5;entryDx=0;entryDy=0;exitX=1;exitY=0.5;exitDx=0;exitDy=0;exitPerimeter=0;" edge="1" parent="1" source="adHpxPq9jT1f6eE09i13-3" target="adHpxPq9jT1f6eE09i13-2">
          <mxGeometry width="50" height="50" relative="1" as="geometry">
            <mxPoint x="170" y="140" as="sourcePoint" />
            <mxPoint x="220" y="90" as="targetPoint" />
          </mxGeometry>
        </mxCell>
        <mxCell id="adHpxPq9jT1f6eE09i13-20" value="metabase&lt;br&gt;bi" style="ellipse;whiteSpace=wrap;html=1;aspect=fixed;" vertex="1" parent="1">
          <mxGeometry x="680" y="200" width="80" height="80" as="geometry" />
        </mxCell>
        <mxCell id="adHpxPq9jT1f6eE09i13-22" value="" style="shape=flexArrow;endArrow=classic;html=1;width=11;endSize=1.01;" edge="1" parent="1">
          <mxGeometry width="50" height="50" relative="1" as="geometry">
            <mxPoint x="670" y="240" as="sourcePoint" />
            <mxPoint x="590" y="240" as="targetPoint" />
          </mxGeometry>
        </mxCell>
      </root>
    </mxGraphModel>
  </diagram>
</mxfile>
